<svg xmlns="http://www.w3.org/2000/svg" version="1.0" width="900.000000pt" height="501.000000pt" viewBox="0 0 900.000000 501.000000" preserveAspectRatio="xMidYMid meet">

<g transform="translate(0.000000,501.000000) scale(0.100000,-0.100000)" fill="#ff5722" stroke="none">
<path d="M3965 4566 c-69 -42 -142 -159 -200 -319 -25 -71 -89 -161 -185 -261 -97 -101 -126 -121 -340 -236 -358 -191 -532 -309 -686 -466 -178 -180 -284 -381 -331 -626 -12 -64 -14 -91 -6 -99 8 -8 40 7 119 56 425 267 630 223 570 -123 -21 -119 -78 -290 -170 -506 -91 -212 -85 -197 -96 -278 -23 -190 44 -356 219 -541 243 -254 660 -487 1201 -669 177 -59 293 -91 316 -86 14 2 21 25 36 112 50 301 175 547 382 751 247 246 508 372 1116 540 443 123 524 158 645 279 272 272 317 551 109 668 -70 39 -157 55 -364 68 -208 13 -264 26 -390 91 -125 64 -252 160 -375 284 -191 192 -274 338 -460 805 -138 346 -163 397 -231 468 -45 47 -55 52 -92 52 -36 0 -50 -7 -88 -42 -37 -34 -62 -75 -126 -208 -92 -190 -118 -230 -153 -230 -34 0 -46 24 -95 185 -46 154 -83 235 -131 290 -61 69 -125 83 -194 41z m675 -1318 c48 -23 91 -58 166 -132 201 -201 239 -267 169 -289 -55 -18 -360 -14 -455 6 -177 38 -280 113 -280 205 0 45 47 128 102 177 91 81 179 91 298 33z" fill="#ff5722"/>
</g>
</svg>