<svg version="1.1" id="Layer_1" xmlns="http://www.w3.org/2000/svg" xmlns:xlink="http://www.w3.org/1999/xlink" x="0px" y="0px"
	 width="100%" viewBox="0 0 512 512" enable-background="new 0 0 512 512" xml:space="preserve">
<path fill="#000000" opacity="1.000000" stroke="none" 
	d="
M513.000000,338.000000 
	C513.000000,396.286652 513.000000,454.573273 513.000000,513.000000 
	C389.312469,513.000000 265.624908,513.000000 141.127533,512.719604 
	C141.116379,511.952393 141.856537,511.282990 142.722290,511.005737 
	C157.695801,506.210052 172.708939,501.536987 187.661453,496.677246 
	C196.880890,493.680817 198.270569,489.392853 192.897919,481.406219 
	C182.269577,465.606781 171.631866,449.813629 161.002991,434.014526 
	C158.440689,430.205811 153.273224,428.575867 149.989258,430.560852 
	C146.100800,432.911224 145.232834,438.103027 148.056885,442.524475 
	C149.983582,445.540985 152.001297,448.499481 153.982529,451.481079 
	C159.038498,459.089966 164.096832,466.697296 169.880325,475.397552 
	C147.116150,467.399628 127.052818,457.468323 108.563950,444.203522 
	C92.477440,432.662170 78.212570,419.201416 65.736382,404.010681 
	C50.673222,385.670135 38.950504,365.157227 30.513849,342.933777 
	C23.861271,325.409882 19.038374,307.297913 17.160917,288.637329 
	C15.985926,276.958710 15.549204,265.082520 16.208611,253.375397 
	C16.951048,240.194138 18.389986,226.904938 21.202950,214.029053 
	C23.990740,201.268417 28.505266,188.835159 32.905323,176.487396 
	C40.993732,153.789108 54.228088,134.104645 69.681175,115.807121 
	C79.888229,103.721252 91.390656,93.081078 103.945023,83.426926 
	C121.526138,69.907288 140.653336,59.345348 161.487122,51.919685 
	C170.780930,48.607151 180.338364,46.039001 189.749100,43.047859 
	C194.342392,41.587914 196.902664,37.614136 195.916153,33.817604 
	C194.856308,29.738798 190.158463,26.970158 185.754517,28.128698 
	C180.272720,29.570789 174.854675,31.258600 169.422195,32.884087 
	C145.205597,40.130104 123.042114,51.423862 102.283188,65.849869 
	C83.487160,78.911804 66.895332,94.274513 52.664997,112.037804 
	C38.878868,129.246613 27.624842,148.150772 19.138546,168.572311 
	C11.190219,187.699280 5.431036,207.449585 2.916003,228.080048 
	C2.829772,228.787384 1.663087,229.362991 1.000004,230.000000 
	C1.000000,153.726318 1.000000,77.452644 1.000000,1.000000 
	C111.020828,1.000000 221.041763,1.000000 331.871399,1.256472 
	C330.910583,2.638058 329.257477,4.038106 327.352997,4.844522 
	C312.884888,10.970734 298.370056,16.986631 283.864746,23.024837 
	C275.655762,26.442032 275.606415,32.098785 280.374298,37.908108 
	C285.657471,44.345249 290.769623,50.923172 296.077271,57.339684 
	C303.391357,66.181862 310.836426,74.915604 318.188354,83.726662 
	C320.756042,86.803940 324.279358,87.048325 327.013367,85.173935 
	C329.001740,83.810738 331.279846,80.067032 330.688934,78.301895 
	C329.258881,74.030075 326.487640,70.104256 323.777985,66.388275 
	C319.837891,60.984909 315.476685,55.888649 311.490540,50.476704 
	C311.814484,50.166840 311.942902,50.041718 312.463379,49.953148 
	C320.979706,53.213604 329.347321,55.939400 337.178131,59.764240 
	C353.913391,67.938370 369.971039,77.386940 383.611053,90.233459 
	C394.606964,100.589661 405.823517,110.892754 415.488831,122.436279 
	C428.568939,138.058136 439.340302,155.481018 446.700104,174.584579 
	C451.509460,187.068008 454.875031,200.107651 458.532684,212.912109 
	C446.935791,205.268784 435.744568,197.534836 424.426392,189.991394 
	C419.810852,186.915176 416.464417,180.280548 408.970947,183.689514 
	C397.465851,160.063492 381.849701,140.165894 362.023163,123.399857 
	C343.482758,107.721420 322.521088,96.687057 299.513702,89.429794 
	C294.432251,87.826950 288.941925,87.520287 283.545502,86.620529 
	C283.451111,86.624290 283.424927,86.437164 283.463989,86.141899 
	C282.997925,85.616638 282.492798,85.386635 281.570984,85.088425 
	C274.109863,84.063713 267.065430,83.107193 259.577240,82.104156 
	C256.750580,82.089973 254.367630,82.122314 251.531891,82.088493 
	C247.724518,82.066422 244.369919,82.110519 240.558319,82.106606 
	C237.581131,82.024498 235.060928,81.990395 232.134033,81.976440 
	C224.822433,83.049850 217.917542,84.103119 210.714111,85.166245 
	C210.135437,85.596634 209.855286,86.017174 209.561493,86.532211 
	C209.547867,86.626709 209.357101,86.618095 208.956573,86.438400 
	C207.567215,86.273903 206.535324,86.107605 205.595779,86.330551 
	C173.730652,93.891640 145.762390,108.826515 122.139114,131.476135 
	C104.344780,148.537064 90.029747,168.258148 81.025345,191.344589 
	C77.017479,201.620377 74.403236,212.439728 70.973633,223.372284 
	C69.846832,229.324127 68.902855,234.916031 67.926659,240.959152 
	C67.647850,246.278671 67.401260,251.146973 67.088501,256.468079 
	C67.066437,260.275513 67.110542,263.630096 67.106758,267.445862 
	C67.422745,272.945007 67.786621,277.983032 68.086151,283.446411 
	C68.925949,289.283081 69.830086,294.694458 70.823196,300.502289 
	C80.164520,342.301880 101.677650,376.173523 134.569931,402.648041 
	C156.733170,420.486969 182.019135,432.215302 210.428345,437.912323 
	C217.888138,438.936035 224.934189,439.892242 232.421295,440.895203 
	C235.519684,440.963379 238.177032,440.984863 241.068604,441.367188 
	C244.899734,441.590057 248.496674,441.452148 252.531754,441.213074 
	C255.654617,441.025299 258.339355,440.938660 261.461609,440.915405 
	C268.884552,439.649780 275.869965,438.320770 283.115967,437.236786 
	C293.314636,434.677368 303.461456,432.447723 313.141327,428.932312 
	C327.277283,423.798615 340.535400,416.783997 352.436554,407.144104 
	C355.149231,409.525513 357.367157,412.042816 360.025269,413.944946 
	C368.643616,420.111877 377.423309,426.053253 385.982758,432.384491 
	C373.138611,441.471436 360.864990,450.942017 347.664764,458.869843 
	C330.197388,469.360413 310.934662,475.877045 291.216370,480.936340 
	C283.627899,482.883362 284.846619,485.087067 285.129242,491.610840 
	C285.268188,494.818695 290.548859,497.255249 294.935669,495.870026 
	C308.969757,491.438324 323.241974,487.493622 336.787537,481.840088 
	C361.349396,471.588593 383.014435,456.508301 403.281982,438.935486 
	C407.461823,439.965393 411.608612,442.393890 414.979187,441.585571 
	C422.432343,439.798248 429.807892,436.997559 436.656525,433.512543 
	C454.873169,424.242798 471.139862,412.355286 484.228577,396.351532 
	C496.607758,381.215332 506.069122,364.722839 510.126465,345.387848 
	C510.661835,342.836578 512.021912,340.458374 513.000000,338.000000 
z"/>
<path fill="#000000" opacity="1.000000" stroke="none" 
	d="
M348.000000,0.999999 
	C402.940674,1.000000 457.881348,1.000000 513.000000,1.000000 
	C513.000000,81.020805 513.000000,161.041748 512.651917,241.665985 
	C510.868134,241.010971 509.622498,239.359573 507.965729,238.558456 
	C497.706268,233.597534 487.354370,228.827728 477.017914,223.576630 
	C474.407410,212.293427 472.201294,201.316528 469.127136,190.588364 
	C464.323944,173.826218 457.040192,158.089935 448.501953,142.865356 
	C439.746216,127.253006 429.302612,112.839989 417.101929,99.916359 
	C407.512299,89.758492 396.870819,80.475807 385.981934,71.690048 
	C369.847382,58.671810 352.046356,48.239777 332.572144,40.854286 
	C323.827332,37.537868 315.089478,34.203083 306.000916,30.744366 
	C306.624817,30.359135 306.934753,30.106501 307.288452,29.958239 
	C319.240417,24.948263 331.179413,19.906675 343.160919,14.968224 
	C347.635956,13.123746 350.000519,9.155507 348.925415,4.792730 
	C348.614075,3.529201 348.308319,2.264281 348.000000,0.999999 
z"/>
<path fill="#628F08" opacity="1.000000" stroke="none" 
	d="
M477.033173,223.994461 
	C487.354370,228.827728 497.706268,233.597534 507.965729,238.558456 
	C509.622498,239.359573 510.868134,241.010971 512.651917,242.134644 
	C513.000000,273.687561 513.000000,305.375122 513.000000,337.531342 
	C512.021912,340.458374 510.661835,342.836578 510.126465,345.387848 
	C506.069122,364.722839 496.607758,381.215332 484.228577,396.351532 
	C471.139862,412.355286 454.873169,424.242798 436.656525,433.512543 
	C429.807892,436.997559 422.432343,439.798248 414.979187,441.585571 
	C411.608612,442.393890 407.461823,439.965393 403.073486,438.665894 
	C397.033478,436.244812 391.587189,434.163147 386.140869,432.081512 
	C377.423309,426.053253 368.643616,420.111877 360.025269,413.944946 
	C357.367157,412.042816 355.149231,409.525513 352.351776,406.802795 
	C351.552277,405.622986 351.249664,404.810730 350.691498,404.255432 
	C341.326752,394.939667 333.277283,384.631531 326.835632,372.674866 
	C324.785889,368.183899 322.859894,364.023071 320.939240,359.508606 
	C320.312683,357.688599 319.680786,356.222229 319.021362,354.367828 
	C318.314148,350.985321 317.634430,347.990845 316.955383,344.581482 
	C316.304016,338.094147 315.167816,332.027954 315.089142,325.948059 
	C314.834991,306.302643 314.969696,286.652161 314.968201,266.549316 
	C314.973541,263.061615 314.965210,260.028229 314.971466,256.530701 
	C314.990906,253.430161 315.178894,250.778519 314.961212,248.160629 
	C314.550201,243.218231 316.537567,240.200790 321.192139,238.285172 
	C326.315186,236.176758 331.169159,233.414536 336.491882,230.911499 
	C339.940155,229.232254 343.036957,227.578644 346.486816,225.905380 
	C357.940186,219.569504 369.040497,213.253250 380.444885,206.800323 
	C383.542389,204.746918 386.335815,202.830185 389.436005,200.785400 
	C393.786713,197.646317 397.970734,194.802216 401.826508,191.566940 
	C404.499512,189.324066 406.720337,186.542267 409.143188,184.001251 
	C416.464417,180.280548 419.810852,186.915176 424.426392,189.991394 
	C435.744568,197.534836 446.935791,205.268784 458.688782,213.224030 
	C465.144043,217.012802 471.088593,220.503632 477.033173,223.994461 
M486.000732,291.500000 
	C485.999542,283.000366 485.922028,274.499786 486.029877,266.001556 
	C486.082458,261.858368 484.393829,259.075745 480.662201,257.292297 
	C458.916870,246.899643 437.615875,235.743088 418.529663,220.814606 
	C414.620880,217.757355 410.815399,218.464615 407.179749,221.349258 
	C389.116638,235.681137 369.105408,246.727661 348.095490,255.995193 
	C343.239105,258.137390 340.816986,260.760193 340.893982,266.382721 
	C341.165649,286.211334 341.039551,306.046112 340.984375,325.878296 
	C340.950653,338.012268 344.587708,349.199799 350.415924,359.554535 
	C362.915802,381.762604 381.559998,397.212616 404.785889,407.344330 
	C409.953522,409.598572 414.795868,410.428009 420.487946,407.956421 
	C438.633575,400.077362 454.439636,389.198639 466.765137,373.645996 
	C479.072174,358.116608 486.354370,340.684326 486.026581,320.498169 
	C485.875061,311.167786 486.000732,301.832855 486.000732,291.500000 
z"/>
<path fill="#000000" opacity="1.000000" stroke="none" 
	d="
M123.000000,513.000000 
	C82.385567,513.000000 41.771130,513.000000 1.000000,513.000000 
	C1.000000,440.312500 1.000000,367.624908 1.339741,294.136597 
	C2.090751,293.845642 2.760483,294.303436 2.874943,294.872833 
	C4.956052,305.225922 6.612889,315.678131 9.072291,325.938538 
	C14.424562,348.267578 24.034273,368.931396 36.047909,388.316528 
	C48.171757,407.879578 62.709896,425.538177 80.145844,440.887939 
	C96.322914,455.129486 113.889221,467.109497 132.966690,476.882019 
	C141.756577,481.384644 151.109375,484.788361 160.576523,488.848846 
	C149.395706,492.552612 138.486450,496.133484 127.601501,499.786774 
	C122.542641,501.484680 120.863197,505.064423 122.529594,510.085205 
	C122.835617,511.007263 122.850647,512.025940 123.000000,513.000000 
z"/>
<path fill="#9FEF00" opacity="1.000000" stroke="none" 
	d="
M123.467934,513.000000 
	C122.850647,512.025940 122.835617,511.007263 122.529594,510.085205 
	C120.863197,505.064423 122.542641,501.484680 127.601501,499.786774 
	C138.486450,496.133484 149.395706,492.552612 160.576523,488.848846 
	C151.109375,484.788361 141.756577,481.384644 132.966690,476.882019 
	C113.889221,467.109497 96.322914,455.129486 80.145844,440.887939 
	C62.709896,425.538177 48.171757,407.879578 36.047909,388.316528 
	C24.034273,368.931396 14.424562,348.267578 9.072291,325.938538 
	C6.612889,315.678131 4.956052,305.225922 2.874943,294.872833 
	C2.760483,294.303436 2.090751,293.845642 1.339741,293.667969 
	C1.000000,272.979095 1.000000,251.958206 1.000004,230.468658 
	C1.663087,229.362991 2.829772,228.787384 2.916003,228.080048 
	C5.431036,207.449585 11.190219,187.699280 19.138546,168.572311 
	C27.624842,148.150772 38.878868,129.246613 52.664997,112.037804 
	C66.895332,94.274513 83.487160,78.911804 102.283188,65.849869 
	C123.042114,51.423862 145.205597,40.130104 169.422195,32.884087 
	C174.854675,31.258600 180.272720,29.570789 185.754517,28.128698 
	C190.158463,26.970158 194.856308,29.738798 195.916153,33.817604 
	C196.902664,37.614136 194.342392,41.587914 189.749100,43.047859 
	C180.338364,46.039001 170.780930,48.607151 161.487122,51.919685 
	C140.653336,59.345348 121.526138,69.907288 103.945023,83.426926 
	C91.390656,93.081078 79.888229,103.721252 69.681175,115.807121 
	C54.228088,134.104645 40.993732,153.789108 32.905323,176.487396 
	C28.505266,188.835159 23.990740,201.268417 21.202950,214.029053 
	C18.389986,226.904938 16.951048,240.194138 16.208611,253.375397 
	C15.549204,265.082520 15.985926,276.958710 17.160917,288.637329 
	C19.038374,307.297913 23.861271,325.409882 30.513849,342.933777 
	C38.950504,365.157227 50.673222,385.670135 65.736382,404.010681 
	C78.212570,419.201416 92.477440,432.662170 108.563950,444.203522 
	C127.052818,457.468323 147.116150,467.399628 169.880325,475.397552 
	C164.096832,466.697296 159.038498,459.089966 153.982529,451.481079 
	C152.001297,448.499481 149.983582,445.540985 148.056885,442.524475 
	C145.232834,438.103027 146.100800,432.911224 149.989258,430.560852 
	C153.273224,428.575867 158.440689,430.205811 161.002991,434.014526 
	C171.631866,449.813629 182.269577,465.606781 192.897919,481.406219 
	C198.270569,489.392853 196.880890,493.680817 187.661453,496.677246 
	C172.708939,501.536987 157.695801,506.210052 142.722290,511.005737 
	C141.856537,511.282990 141.116379,511.952393 140.658875,512.719604 
	C135.311951,513.000000 129.623917,513.000000 123.467934,513.000000 
z"/>
<path fill="#9FEF00" opacity="1.000000" stroke="none" 
	d="
M477.017914,223.576630 
	C471.088593,220.503632 465.144043,217.012802 459.043396,213.210052 
	C454.875031,200.107651 451.509460,187.068008 446.700104,174.584579 
	C439.340302,155.481018 428.568939,138.058136 415.488831,122.436279 
	C405.823517,110.892754 394.606964,100.589661 383.611053,90.233459 
	C369.971039,77.386940 353.913391,67.938370 337.178131,59.764240 
	C329.347321,55.939400 320.979706,53.213604 312.350952,49.681900 
	C311.392365,49.321754 310.938141,49.269409 310.483948,49.217068 
	C310.754303,49.698528 311.024689,50.179985 311.295044,50.661446 
	C315.476685,55.888649 319.837891,60.984909 323.777985,66.388275 
	C326.487640,70.104256 329.258881,74.030075 330.688934,78.301895 
	C331.279846,80.067032 329.001740,83.810738 327.013367,85.173935 
	C324.279358,87.048325 320.756042,86.803940 318.188354,83.726662 
	C310.836426,74.915604 303.391357,66.181862 296.077271,57.339684 
	C290.769623,50.923172 285.657471,44.345249 280.374298,37.908108 
	C275.606415,32.098785 275.655762,26.442032 283.864746,23.024837 
	C298.370056,16.986631 312.884888,10.970734 327.352997,4.844522 
	C329.257477,4.038106 330.910583,2.638058 332.340057,1.256472 
	C337.022095,1.000000 342.044189,1.000000 347.533142,0.999999 
	C348.308319,2.264281 348.614075,3.529201 348.925415,4.792730 
	C350.000519,9.155507 347.635956,13.123746 343.160919,14.968224 
	C331.179413,19.906675 319.240417,24.948263 307.288452,29.958239 
	C306.934753,30.106501 306.624817,30.359135 306.000916,30.744366 
	C315.089478,34.203083 323.827332,37.537868 332.572144,40.854286 
	C352.046356,48.239777 369.847382,58.671810 385.981934,71.690048 
	C396.870819,80.475807 407.512299,89.758492 417.101929,99.916359 
	C429.302612,112.839989 439.746216,127.253006 448.501953,142.865356 
	C457.040192,158.089935 464.323944,173.826218 469.127136,190.588364 
	C472.201294,201.316528 474.407410,212.293427 477.017914,223.576630 
z"/>
<path fill="#9FEF00" opacity="1.000000" stroke="none" 
	d="
M346.133728,225.925018 
	C343.036957,227.578644 339.940155,229.232254 336.435913,230.479645 
	C335.686676,227.477463 335.462860,224.859512 334.983246,222.289276 
	C332.646942,209.769455 330.345673,197.240631 327.725128,184.779526 
	C327.412720,183.294113 325.428680,181.482346 323.876923,181.049255 
	C315.874573,178.815933 307.834656,176.564606 299.666504,175.116898 
	C289.677887,173.346497 279.573364,172.114288 269.471466,171.144043 
	C263.777618,170.597168 257.988190,171.045456 252.418579,171.045456 
	C252.418579,199.783890 252.418579,227.793472 252.418579,255.999893 
	C271.630585,255.999893 290.424927,255.971298 309.218842,256.043365 
	C311.132690,256.050751 313.044250,256.663177 314.956879,256.994843 
	C314.965210,260.028229 314.973541,263.061615 314.504517,266.547974 
	C293.474335,267.000946 272.921478,267.000946 252.335876,267.000946 
	C252.335876,296.006348 252.335876,324.347382 252.335876,352.995575 
	C258.417633,352.650208 264.167908,352.508392 269.877869,351.952789 
	C277.051880,351.254669 284.214569,350.361755 291.342621,349.290161 
	C299.901733,348.003479 308.419220,346.440002 316.954742,344.996399 
	C317.634430,347.990845 318.314148,350.985321 318.609863,354.467529 
	C296.601898,359.967743 274.711914,362.941498 252.093613,363.195312 
	C252.093613,389.455170 252.093613,415.384705 252.093613,441.314209 
	C248.496674,441.452148 244.899734,441.590057 241.134583,440.903381 
	C240.966385,414.495117 240.966385,388.911438 240.966385,364.718628 
	C216.938171,361.531250 193.750565,358.455383 169.762878,355.273376 
	C174.969437,365.713837 180.048889,376.782410 185.901276,387.425995 
	C194.480545,403.028931 204.353119,417.815216 217.587982,429.949982 
	C222.003937,433.998840 227.161636,437.238770 231.980255,440.848480 
	C224.934189,439.892242 217.888138,438.936035 210.410187,437.571411 
	C201.204224,426.152313 191.258926,415.859833 183.954086,403.948090 
	C174.931000,389.234497 167.593323,373.399841 160.608627,357.572418 
	C158.246521,352.219910 155.654984,349.326019 150.285233,347.541260 
	C133.604584,341.996918 118.021347,334.030151 103.554077,324.087280 
	C92.392319,316.416199 81.658386,308.122589 70.734222,300.105804 
	C69.830086,294.694458 68.925949,289.283081 68.385437,283.575043 
	C92.477974,308.508759 121.834221,324.898163 152.759003,337.679962 
	C149.627060,314.184357 146.522141,290.891388 143.335403,266.984711 
	C118.669754,266.984711 92.912201,266.984711 67.154648,266.984711 
	C67.110542,263.630096 67.066437,260.275513 67.545151,256.462341 
	C93.639526,256.003784 119.211098,256.003784 143.343903,256.003784 
	C146.537552,232.050476 149.599213,209.087067 152.737335,185.550232 
	C121.162872,198.512344 91.922935,215.363800 67.958878,240.507950 
	C68.902855,234.916031 69.846832,229.324127 71.268265,223.233490 
	C74.117790,220.699997 76.447449,218.613220 78.868530,216.638519 
	C100.972557,198.610077 125.189049,184.257263 152.245346,174.993469 
	C156.358826,173.585068 158.712448,171.393295 159.994644,167.226089 
	C165.030716,150.858795 172.646805,135.584686 182.241013,121.535530 
	C190.536179,109.388634 200.263092,98.219467 209.357101,86.618095 
	C209.357101,86.618095 209.547867,86.626709 209.806122,86.457359 
	C210.380463,85.910797 210.696548,85.533585 211.012650,85.156380 
	C217.917542,84.103119 224.822433,83.049850 232.120941,82.312119 
	C221.151413,89.006157 212.053879,97.724136 204.161697,108.133202 
	C190.044250,126.752853 178.368790,146.605438 170.752319,167.733917 
	C193.793289,164.689423 217.106186,161.609009 241.015335,158.449799 
	C241.015335,133.669357 241.015335,107.911987 241.015335,82.154610 
	C244.369919,82.110519 247.724518,82.066422 251.537643,82.545143 
	C251.996185,108.643059 251.996185,134.218170 251.996185,158.518463 
	C275.939087,161.715790 298.912842,164.783691 321.909698,167.854691 
	C321.820923,167.476807 321.781769,166.627380 321.434265,165.932053 
	C315.005981,153.069702 309.143127,139.876419 301.941010,127.460655 
	C291.420258,109.323860 278.952576,92.659317 260.020966,82.150673 
	C267.065430,83.107193 274.109863,84.063713 281.657379,85.326569 
	C282.581940,85.901001 283.003418,86.169083 283.424927,86.437164 
	C283.424927,86.437164 283.451111,86.624290 283.656860,86.918259 
	C306.868958,110.343880 322.675659,137.923035 333.597870,168.421387 
	C334.928986,172.138321 336.804779,173.891800 340.395569,175.064041 
	C356.816742,180.424789 372.445496,187.483765 386.415527,197.825470 
	C387.492096,198.622437 388.232544,199.873489 389.129242,200.913452 
	C386.335815,202.830185 383.542389,204.746918 380.291321,206.488861 
	C367.670502,197.042862 353.813293,191.223816 339.609161,185.604324 
	C341.873810,199.599396 344.003754,212.762207 346.133728,225.925018 
M162.506851,327.006317 
	C163.578827,331.113464 164.501022,335.269135 165.807388,339.300323 
	C166.240204,340.635986 167.482178,342.416107 168.659470,342.692413 
	C178.353836,344.967834 188.054504,347.358215 197.881729,348.888916 
	C209.379227,350.679840 221.000031,351.697693 232.581207,352.919250 
	C235.292175,353.205200 238.059006,352.961517 240.710266,352.961517 
	C240.710266,323.932739 240.710266,295.695312 240.710266,267.351898 
	C212.054550,267.351898 183.689743,267.351898 153.891785,267.351898 
	C156.679733,287.345093 159.392517,306.799225 162.506851,327.006317 
M240.999817,235.499771 
	C240.999817,214.089905 240.999817,192.680038 240.999817,170.195938 
	C229.331070,171.174316 218.425949,171.553146 207.695908,173.126190 
	C194.774673,175.020432 181.982574,177.836090 169.192413,180.527756 
	C167.737167,180.834015 165.941971,182.710037 165.522949,184.200714 
	C163.757431,190.481400 162.168152,196.842026 161.045761,203.266251 
	C159.158752,214.066772 157.334274,224.900818 156.152145,235.793335 
	C155.448822,242.274033 156.023285,248.893417 156.023285,255.690903 
	C183.822800,255.690903 212.200867,255.690903 240.999817,255.690903 
	C240.999817,249.091583 240.999817,242.795547 240.999817,235.499771 
z"/>
<path fill="#313D51" opacity="1.000000" stroke="none" 
	d="
M70.823204,300.502289 
	C81.658386,308.122589 92.392319,316.416199 103.554077,324.087280 
	C118.021347,334.030151 133.604584,341.996918 150.285233,347.541260 
	C155.654984,349.326019 158.246521,352.219910 160.608627,357.572418 
	C167.593323,373.399841 174.931000,389.234497 183.954086,403.948090 
	C191.258926,415.859833 201.204224,426.152313 209.996460,437.503967 
	C182.019135,432.215302 156.733170,420.486969 134.569931,402.648041 
	C101.677650,376.173523 80.164520,342.301880 70.823204,300.502289 
z"/>
<path fill="#313D51" opacity="1.000000" stroke="none" 
	d="
M208.956573,86.438400 
	C200.263092,98.219467 190.536179,109.388634 182.241013,121.535530 
	C172.646805,135.584686 165.030716,150.858795 159.994644,167.226089 
	C158.712448,171.393295 156.358826,173.585068 152.245346,174.993469 
	C125.189049,184.257263 100.972557,198.610077 78.868530,216.638519 
	C76.447449,218.613220 74.117790,220.699997 71.451088,222.873566 
	C74.403236,212.439728 77.017479,201.620377 81.025345,191.344589 
	C90.029747,168.258148 104.344780,148.537064 122.139114,131.476135 
	C145.762390,108.826515 173.730652,93.891640 205.595779,86.330551 
	C206.535324,86.107605 207.567215,86.273903 208.956573,86.438400 
z"/>
<path fill="#313D51" opacity="1.000000" stroke="none" 
	d="
M389.436005,200.785400 
	C388.232544,199.873489 387.492096,198.622437 386.415527,197.825470 
	C372.445496,187.483765 356.816742,180.424789 340.395569,175.064041 
	C336.804779,173.891800 334.928986,172.138321 333.597870,168.421387 
	C322.675659,137.923035 306.868958,110.343880 283.751282,86.914497 
	C288.941925,87.520287 294.432251,87.826950 299.513702,89.429794 
	C322.521088,96.687057 343.482758,107.721420 362.023163,123.399857 
	C381.849701,140.165894 397.465851,160.063492 408.970947,183.689514 
	C406.720337,186.542267 404.499512,189.324066 401.826508,191.566940 
	C397.970734,194.802216 393.786713,197.646317 389.436005,200.785400 
z"/>
<path fill="#313D51" opacity="1.000000" stroke="none" 
	d="
M67.106758,267.445862 
	C92.912201,266.984711 118.669754,266.984711 143.335403,266.984711 
	C146.522141,290.891388 149.627060,314.184357 152.759003,337.679962 
	C121.834221,324.898163 92.477974,308.508759 68.449783,283.149719 
	C67.786621,277.983032 67.422745,272.945007 67.106758,267.445862 
z"/>
<path fill="#313D51" opacity="1.000000" stroke="none" 
	d="
M67.926659,240.959152 
	C91.922935,215.363800 121.162872,198.512344 152.737335,185.550232 
	C149.599213,209.087067 146.537552,232.050476 143.343903,256.003784 
	C119.211098,256.003784 93.639526,256.003784 67.611313,256.009521 
	C67.401260,251.146973 67.647850,246.278671 67.926659,240.959152 
z"/>
<path fill="#313D51" opacity="1.000000" stroke="none" 
	d="
M259.577240,82.104156 
	C278.952576,92.659317 291.420258,109.323860 301.941010,127.460655 
	C309.143127,139.876419 315.005981,153.069702 321.434265,165.932053 
	C321.781769,166.627380 321.820923,167.476807 321.909698,167.854691 
	C298.912842,164.783691 275.939087,161.715790 251.996185,158.518463 
	C251.996185,134.218170 251.996185,108.643059 251.990433,82.611305 
	C254.367630,82.122314 256.750580,82.089973 259.577240,82.104156 
z"/>
<path fill="#313D51" opacity="1.000000" stroke="none" 
	d="
M232.421295,440.895203 
	C227.161636,437.238770 222.003937,433.998840 217.587982,429.949982 
	C204.353119,417.815216 194.480545,403.028931 185.901276,387.425995 
	C180.048889,376.782410 174.969437,365.713837 169.762878,355.273376 
	C193.750565,358.455383 216.938171,361.531250 240.966385,364.718628 
	C240.966385,388.911438 240.966385,414.495117 240.900391,440.542542 
	C238.177032,440.984863 235.519684,440.963379 232.421295,440.895203 
z"/>
<path fill="#313D51" opacity="1.000000" stroke="none" 
	d="
M252.531754,441.213074 
	C252.093613,415.384705 252.093613,389.455170 252.093613,363.195312 
	C274.711914,362.941498 296.601898,359.967743 318.637390,354.855591 
	C319.680786,356.222229 320.312683,357.688599 320.633850,359.717682 
	C316.226074,368.807098 312.461456,377.513916 307.959839,385.821381 
	C299.660492,401.137268 290.241425,415.771545 277.501007,427.842407 
	C272.441650,432.635895 266.541473,436.541931 261.024078,440.851990 
	C258.339355,440.938660 255.654617,441.025299 252.531754,441.213074 
z"/>
<path fill="#313D51" opacity="1.000000" stroke="none" 
	d="
M240.558319,82.106606 
	C241.015335,107.911987 241.015335,133.669357 241.015335,158.449799 
	C217.106186,161.609009 193.793289,164.689423 170.752319,167.733917 
	C178.368790,146.605438 190.044250,126.752853 204.161697,108.133202 
	C212.053879,97.724136 221.151413,89.006157 232.527649,82.291969 
	C235.060928,81.990395 237.581131,82.024498 240.558319,82.106606 
z"/>
<path fill="#9FEF00" opacity="1.000000" stroke="none" 
	d="
M385.982758,432.384491 
	C391.587189,434.163147 397.033478,436.244812 402.688293,438.596069 
	C383.014435,456.508301 361.349396,471.588593 336.787537,481.840088 
	C323.241974,487.493622 308.969757,491.438324 294.935669,495.870026 
	C290.548859,497.255249 285.268188,494.818695 285.129242,491.610840 
	C284.846619,485.087067 283.627899,482.883362 291.216370,480.936340 
	C310.934662,475.877045 330.197388,469.360413 347.664764,458.869843 
	C360.864990,450.942017 373.138611,441.471436 385.982758,432.384491 
z"/>
<path fill="#313D51" opacity="1.000000" stroke="none" 
	d="
M326.959381,373.004944 
	C333.277283,384.631531 341.326752,394.939667 350.691498,404.255432 
	C351.249664,404.810730 351.552277,405.622986 352.058594,406.656982 
	C340.535400,416.783997 327.277283,423.798615 313.141327,428.932312 
	C303.461456,432.447723 293.314636,434.677368 283.266785,436.928864 
	C289.509186,429.066010 296.688843,422.309143 302.027649,414.321869 
	C310.956909,400.963104 318.710785,386.818665 326.959381,373.004944 
z"/>
<path fill="#9FEF00" opacity="1.000000" stroke="none" 
	d="
M326.835632,372.674866 
	C318.710785,386.818665 310.956909,400.963104 302.027649,414.321869 
	C296.688843,422.309143 289.509186,429.066010 283.006165,436.683838 
	C275.869965,438.320770 268.884552,439.649780 261.461609,440.915405 
	C266.541473,436.541931 272.441650,432.635895 277.501007,427.842407 
	C290.241425,415.771545 299.660492,401.137268 307.959839,385.821381 
	C312.461456,377.513916 316.226074,368.807098 320.628540,360.071289 
	C322.859894,364.023071 324.785889,368.183899 326.835632,372.674866 
z"/>
<path fill="#313D51" opacity="1.000000" stroke="none" 
	d="
M283.463989,86.141899 
	C283.003418,86.169083 282.581940,85.901001 282.074036,85.394775 
	C282.492798,85.386635 282.997925,85.616638 283.463989,86.141899 
z"/>
<path fill="#313D51" opacity="1.000000" stroke="none" 
	d="
M210.714111,85.166245 
	C210.696548,85.533585 210.380463,85.910797 209.819763,86.362862 
	C209.855286,86.017174 210.135437,85.596634 210.714111,85.166245 
z"/>
<path fill="#9FEF00" opacity="1.000000" stroke="none" 
	d="
M486.000732,292.000000 
	C486.000732,301.832855 485.875061,311.167786 486.026581,320.498169 
	C486.354370,340.684326 479.072174,358.116608 466.765137,373.645996 
	C454.439636,389.198639 438.633575,400.077362 420.487946,407.956421 
	C414.795868,410.428009 409.953522,409.598572 404.785889,407.344330 
	C381.559998,397.212616 362.915802,381.762604 350.415924,359.554535 
	C344.587708,349.199799 340.950653,338.012268 340.984375,325.878296 
	C341.039551,306.046112 341.165649,286.211334 340.893982,266.382721 
	C340.816986,260.760193 343.239105,258.137390 348.095490,255.995193 
	C369.105408,246.727661 389.116638,235.681137 407.179749,221.349258 
	C410.815399,218.464615 414.620880,217.757355 418.529663,220.814606 
	C437.615875,235.743088 458.916870,246.899643 480.662201,257.292297 
	C484.393829,259.075745 486.082458,261.858368 486.029877,266.001556 
	C485.922028,274.499786 485.999542,283.000366 486.000732,292.000000 
M423.824280,322.347321 
	C427.052307,319.762451 430.253632,317.143372 433.514191,314.600220 
	C439.371948,310.031219 445.324738,305.582153 451.123199,300.939789 
	C455.147125,297.718170 456.347198,292.802704 454.026001,290.186676 
	C451.242706,287.049866 445.957764,286.350952 442.880341,288.770691 
	C434.172577,295.617523 425.529114,302.546906 416.775665,309.334625 
	C408.938477,315.411804 400.988678,321.343842 392.457764,327.818665 
	C390.480743,321.720428 388.495117,316.420349 387.084503,310.971436 
	C386.043365,306.949829 384.234375,304.764191 379.869507,305.724243 
	C374.365753,306.934814 371.184784,310.689209 372.605347,314.891205 
	C375.845276,324.474792 379.232758,334.015839 382.868744,343.455353 
	C384.958221,348.879974 388.197784,349.941345 392.886810,346.438782 
	C403.163666,338.762207 413.142548,330.686768 423.824280,322.347321 
z"/>
<path fill="#313D51" opacity="1.000000" stroke="none" 
	d="
M314.971466,256.530701 
	C313.044250,256.663177 311.132690,256.050751 309.218842,256.043365 
	C290.424927,255.971298 271.630585,255.999893 252.418579,255.999893 
	C252.418579,227.793472 252.418579,199.783890 252.418579,171.045456 
	C257.988190,171.045456 263.777618,170.597168 269.471466,171.144043 
	C279.573364,172.114288 289.677887,173.346497 299.666504,175.116898 
	C307.834656,176.564606 315.874573,178.815933 323.876923,181.049255 
	C325.428680,181.482346 327.412720,183.294113 327.725128,184.779526 
	C330.345673,197.240631 332.646942,209.769455 334.983246,222.289276 
	C335.462860,224.859512 335.686676,227.477463 336.084412,230.505280 
	C331.169159,233.414536 326.315186,236.176758 321.192139,238.285172 
	C316.537567,240.200790 314.550201,243.218231 314.961212,248.160629 
	C315.178894,250.778519 314.990906,253.430161 314.971466,256.530701 
z"/>
<path fill="#313D51" opacity="1.000000" stroke="none" 
	d="
M316.955383,344.581512 
	C308.419220,346.440002 299.901733,348.003479 291.342621,349.290161 
	C284.214569,350.361755 277.051880,351.254669 269.877869,351.952789 
	C264.167908,352.508392 258.417633,352.650208 252.335876,352.995575 
	C252.335876,324.347382 252.335876,296.006348 252.335876,267.000946 
	C272.921478,267.000946 293.474335,267.000946 314.490845,267.002289 
	C314.969696,286.652161 314.834991,306.302643 315.089142,325.948059 
	C315.167816,332.027954 316.304016,338.094147 316.955383,344.581512 
z"/>
<path fill="#313D51" opacity="1.000000" stroke="none" 
	d="
M346.486816,225.905365 
	C344.003754,212.762207 341.873810,199.599396 339.609161,185.604324 
	C353.813293,191.223816 367.670502,197.042862 379.987244,206.625549 
	C369.040497,213.253250 357.940186,219.569504 346.486816,225.905365 
z"/>
<path fill="#000000" opacity="1.000000" stroke="none" 
	d="
M311.490540,50.476704 
	C311.024689,50.179985 310.754303,49.698528 310.483948,49.217068 
	C310.938141,49.269409 311.392365,49.321754 311.958954,49.645348 
	C311.942902,50.041718 311.814484,50.166840 311.490540,50.476704 
z"/>
<path fill="#313D51" opacity="1.000000" stroke="none" 
	d="
M162.306061,326.629822 
	C159.392517,306.799225 156.679733,287.345093 153.891785,267.351898 
	C183.689743,267.351898 212.054550,267.351898 240.710266,267.351898 
	C240.710266,295.695312 240.710266,323.932739 240.710266,352.961517 
	C238.059006,352.961517 235.292175,353.205200 232.581207,352.919250 
	C221.000031,351.697693 209.379227,350.679840 197.881729,348.888916 
	C188.054504,347.358215 178.353836,344.967834 168.659470,342.692413 
	C167.482178,342.416107 166.240204,340.635986 165.807388,339.300323 
	C164.501022,335.269135 163.578827,331.113464 162.306061,326.629822 
z"/>
<path fill="#313D51" opacity="1.000000" stroke="none" 
	d="
M240.999817,235.999634 
	C240.999817,242.795547 240.999817,249.091583 240.999817,255.690903 
	C212.200867,255.690903 183.822800,255.690903 156.023285,255.690903 
	C156.023285,248.893417 155.448822,242.274033 156.152145,235.793335 
	C157.334274,224.900818 159.158752,214.066772 161.045761,203.266251 
	C162.168152,196.842026 163.757431,190.481400 165.522949,184.200714 
	C165.941971,182.710037 167.737167,180.834015 169.192413,180.527756 
	C181.982574,177.836090 194.774673,175.020432 207.695908,173.126190 
	C218.425949,171.553146 229.331070,171.174316 240.999817,170.195938 
	C240.999817,192.680038 240.999817,214.089905 240.999817,235.999634 
z"/>
<path fill="#17202D" opacity="1.000000" stroke="none" 
	d="
M423.533691,322.560760 
	C413.142548,330.686768 403.163666,338.762207 392.886810,346.438782 
	C388.197784,349.941345 384.958221,348.879974 382.868744,343.455353 
	C379.232758,334.015839 375.845276,324.474792 372.605347,314.891205 
	C371.184784,310.689209 374.365753,306.934814 379.869507,305.724243 
	C384.234375,304.764191 386.043365,306.949829 387.084503,310.971436 
	C388.495117,316.420349 390.480743,321.720428 392.457764,327.818665 
	C400.988678,321.343842 408.938477,315.411804 416.775665,309.334625 
	C425.529114,302.546906 434.172577,295.617523 442.880341,288.770691 
	C445.957764,286.350952 451.242706,287.049866 454.026001,290.186676 
	C456.347198,292.802704 455.147125,297.718170 451.123199,300.939789 
	C445.324738,305.582153 439.371948,310.031219 433.514191,314.600220 
	C430.253632,317.143372 427.052307,319.762451 423.533691,322.560760 
z"/>
</svg>
